<svg xmlns="http://www.w3.org/2000/svg" viewBox="0 0 240 120" aria-hidden="true">
  <defs>
    <g id="diamond">
      <path d="M60 0L120 60L60 120L0 60Z" fill="none" stroke="rgba(255,255,255,0.18)" stroke-width="2"/>
      <path d="M60 18L102 60L60 102L18 60Z" fill="none" stroke="rgba(255,255,255,0.14)" stroke-width="1.4"/>
    </g>
    <g id="wheat" fill="none" stroke="rgba(255,255,255,0.24)" stroke-linecap="round" stroke-linejoin="round">
      <path d="M0 -18V18" stroke-width="2.5"/>
      <path d="M0 -12C4 -9 6 -5 6 -1C6 3 4 7 0 10" stroke-width="2"/>
      <path d="M0 -12C-4 -9 -6 -5 -6 -1C-6 3 -4 7 0 10" stroke-width="2"/>
      <path d="M-6 -4C-10 -1 -12 3 -12 7C-12 10 -10 13 -6 16" stroke-width="1.7"/>
      <path d="M6 -4C10 -1 12 3 12 7C12 10 10 13 6 16" stroke-width="1.7"/>
    </g>
  </defs>

  <rect width="240" height="120" fill="#D12328"/>
  <use href="#diamond" x="0" y="0"/>
  <use href="#diamond" x="120" y="0"/>
  <use href="#diamond" x="60" y="-60"/>
  <use href="#diamond" x="60" y="60"/>
  <use href="#wheat" x="60" y="60"/>
  <use href="#wheat" x="180" y="60"/>
  <use href="#wheat" x="120" y="0"/>
  <use href="#wheat" x="120" y="120"/>
</svg>
